<mxfile host="app.diagrams.net" modified="2024-05-07T10:00:15.441Z" agent="Mozilla/5.0 (Windows NT 10.0; Win64; x64) AppleWebKit/537.36 (KHTML, like Gecko) Chrome/124.0.0.0 Safari/537.36" etag="dvfIFCW7wIcdt4VxYa5b" version="24.3.1" type="device">
  <diagram name="Page-1" id="bSxDizArWJc6PZamr7eB">
    <mxGraphModel dx="3235" dy="2580" grid="1" gridSize="10" guides="1" tooltips="1" connect="1" arrows="1" fold="1" page="1" pageScale="1" pageWidth="850" pageHeight="1100" math="0" shadow="0">
      <root>
        <mxCell id="0" />
        <mxCell id="1" parent="0" />
        <mxCell id="98YgMs9rK_HKfB4fXoP2-1" value="&lt;font style=&quot;font-size: 24px;&quot;&gt;team&lt;/font&gt;" style="rounded=0;whiteSpace=wrap;html=1;" vertex="1" parent="1">
          <mxGeometry x="150" y="-60" width="120" height="60" as="geometry" />
        </mxCell>
        <mxCell id="98YgMs9rK_HKfB4fXoP2-2" value="&lt;font style=&quot;font-size: 24px;&quot;&gt;game&lt;/font&gt;" style="rounded=0;whiteSpace=wrap;html=1;" vertex="1" parent="1">
          <mxGeometry x="150" y="390" width="120" height="60" as="geometry" />
        </mxCell>
        <mxCell id="98YgMs9rK_HKfB4fXoP2-3" value="&lt;font style=&quot;font-size: 24px;&quot;&gt;season&lt;/font&gt;" style="rounded=0;whiteSpace=wrap;html=1;" vertex="1" parent="1">
          <mxGeometry x="150" y="850" width="120" height="60" as="geometry" />
        </mxCell>
        <mxCell id="98YgMs9rK_HKfB4fXoP2-11" style="edgeStyle=orthogonalEdgeStyle;rounded=0;orthogonalLoop=1;jettySize=auto;html=1;exitX=0.5;exitY=0;exitDx=0;exitDy=0;" edge="1" parent="1" source="98YgMs9rK_HKfB4fXoP2-4">
          <mxGeometry relative="1" as="geometry">
            <mxPoint x="710" y="430" as="targetPoint" />
          </mxGeometry>
        </mxCell>
        <mxCell id="98YgMs9rK_HKfB4fXoP2-4" value="&lt;font style=&quot;font-size: 24px;&quot;&gt;gameRecord&lt;/font&gt;" style="rounded=0;whiteSpace=wrap;html=1;" vertex="1" parent="1">
          <mxGeometry x="630" y="410" width="160" height="60" as="geometry" />
        </mxCell>
        <mxCell id="98YgMs9rK_HKfB4fXoP2-5" value="&lt;font style=&quot;font-size: 24px;&quot;&gt;player&lt;/font&gt;" style="rounded=0;whiteSpace=wrap;html=1;" vertex="1" parent="1">
          <mxGeometry x="640" y="-50" width="120" height="50" as="geometry" />
        </mxCell>
        <mxCell id="98YgMs9rK_HKfB4fXoP2-6" value="&lt;font style=&quot;font-size: 24px;&quot;&gt;belong&lt;/font&gt;" style="rhombus;whiteSpace=wrap;html=1;" vertex="1" parent="1">
          <mxGeometry x="400" y="-85" width="120" height="110" as="geometry" />
        </mxCell>
        <mxCell id="98YgMs9rK_HKfB4fXoP2-7" value="&lt;font style=&quot;font-size: 24px;&quot;&gt;record&lt;/font&gt;" style="rhombus;whiteSpace=wrap;html=1;" vertex="1" parent="1">
          <mxGeometry x="400" y="385" width="120" height="110" as="geometry" />
        </mxCell>
        <mxCell id="98YgMs9rK_HKfB4fXoP2-8" value="&lt;font style=&quot;font-size: 24px;&quot;&gt;in&lt;/font&gt;" style="rhombus;whiteSpace=wrap;html=1;" vertex="1" parent="1">
          <mxGeometry x="150" y="590" width="120" height="110" as="geometry" />
        </mxCell>
        <mxCell id="98YgMs9rK_HKfB4fXoP2-9" value="&lt;span style=&quot;font-size: 24px;&quot;&gt;attend&lt;/span&gt;" style="rhombus;whiteSpace=wrap;html=1;" vertex="1" parent="1">
          <mxGeometry x="160" y="130" width="120" height="110" as="geometry" />
        </mxCell>
        <mxCell id="98YgMs9rK_HKfB4fXoP2-10" value="&lt;font style=&quot;font-size: 24px;&quot;&gt;has&lt;/font&gt;" style="rhombus;whiteSpace=wrap;html=1;" vertex="1" parent="1">
          <mxGeometry x="640" y="130" width="120" height="110" as="geometry" />
        </mxCell>
        <mxCell id="98YgMs9rK_HKfB4fXoP2-19" value="PID" style="ellipse;whiteSpace=wrap;html=1;align=center;fontStyle=4;" vertex="1" parent="1">
          <mxGeometry x="650" y="-200" width="130" height="50" as="geometry" />
        </mxCell>
        <mxCell id="98YgMs9rK_HKfB4fXoP2-21" value="" style="endArrow=none;html=1;rounded=0;entryX=0.5;entryY=0;entryDx=0;entryDy=0;exitX=0.5;exitY=1;exitDx=0;exitDy=0;" edge="1" parent="1" source="98YgMs9rK_HKfB4fXoP2-19" target="98YgMs9rK_HKfB4fXoP2-5">
          <mxGeometry relative="1" as="geometry">
            <mxPoint x="360" y="150" as="sourcePoint" />
            <mxPoint x="620" y="50" as="targetPoint" />
          </mxGeometry>
        </mxCell>
        <mxCell id="98YgMs9rK_HKfB4fXoP2-22" value="SID" style="ellipse;whiteSpace=wrap;html=1;align=center;fontStyle=4;" vertex="1" parent="1">
          <mxGeometry x="380" y="730" width="130" height="50" as="geometry" />
        </mxCell>
        <mxCell id="98YgMs9rK_HKfB4fXoP2-23" value="" style="endArrow=none;html=1;rounded=0;entryX=1;entryY=0.25;entryDx=0;entryDy=0;exitX=0.5;exitY=1;exitDx=0;exitDy=0;" edge="1" parent="1" source="98YgMs9rK_HKfB4fXoP2-22" target="98YgMs9rK_HKfB4fXoP2-3">
          <mxGeometry relative="1" as="geometry">
            <mxPoint x="90" y="1080" as="sourcePoint" />
            <mxPoint x="430" y="880" as="targetPoint" />
          </mxGeometry>
        </mxCell>
        <mxCell id="98YgMs9rK_HKfB4fXoP2-24" value="GID" style="ellipse;whiteSpace=wrap;html=1;align=center;fontStyle=4;" vertex="1" parent="1">
          <mxGeometry x="-70" y="290" width="130" height="50" as="geometry" />
        </mxCell>
        <mxCell id="98YgMs9rK_HKfB4fXoP2-25" value="" style="endArrow=none;html=1;rounded=0;entryX=0;entryY=0.25;entryDx=0;entryDy=0;exitX=0.5;exitY=1;exitDx=0;exitDy=0;" edge="1" parent="1" source="98YgMs9rK_HKfB4fXoP2-24" target="98YgMs9rK_HKfB4fXoP2-2">
          <mxGeometry relative="1" as="geometry">
            <mxPoint x="-360" y="640" as="sourcePoint" />
            <mxPoint x="-30" y="445" as="targetPoint" />
          </mxGeometry>
        </mxCell>
        <mxCell id="98YgMs9rK_HKfB4fXoP2-26" value="TID" style="ellipse;whiteSpace=wrap;html=1;align=center;fontStyle=4;" vertex="1" parent="1">
          <mxGeometry x="120" y="-200" width="130" height="50" as="geometry" />
        </mxCell>
        <mxCell id="98YgMs9rK_HKfB4fXoP2-27" value="" style="endArrow=none;html=1;rounded=0;entryX=0.402;entryY=0.031;entryDx=0;entryDy=0;exitX=0.5;exitY=1;exitDx=0;exitDy=0;entryPerimeter=0;" edge="1" parent="1" source="98YgMs9rK_HKfB4fXoP2-26" target="98YgMs9rK_HKfB4fXoP2-1">
          <mxGeometry relative="1" as="geometry">
            <mxPoint x="390" y="180" as="sourcePoint" />
            <mxPoint x="730" y="-20" as="targetPoint" />
          </mxGeometry>
        </mxCell>
        <mxCell id="98YgMs9rK_HKfB4fXoP2-28" value="RID" style="ellipse;whiteSpace=wrap;html=1;align=center;fontStyle=4;" vertex="1" parent="1">
          <mxGeometry x="820" y="310" width="130" height="50" as="geometry" />
        </mxCell>
        <mxCell id="98YgMs9rK_HKfB4fXoP2-29" value="" style="endArrow=none;html=1;rounded=0;entryX=0.832;entryY=-0.039;entryDx=0;entryDy=0;exitX=0.5;exitY=1;exitDx=0;exitDy=0;entryPerimeter=0;" edge="1" parent="1" source="98YgMs9rK_HKfB4fXoP2-28" target="98YgMs9rK_HKfB4fXoP2-4">
          <mxGeometry relative="1" as="geometry">
            <mxPoint x="430" y="630" as="sourcePoint" />
            <mxPoint x="770" y="430" as="targetPoint" />
          </mxGeometry>
        </mxCell>
        <mxCell id="98YgMs9rK_HKfB4fXoP2-31" value="Name" style="ellipse;whiteSpace=wrap;html=1;align=center;" vertex="1" parent="1">
          <mxGeometry x="480" y="-200" width="150" height="60" as="geometry" />
        </mxCell>
        <mxCell id="98YgMs9rK_HKfB4fXoP2-32" value="" style="endArrow=none;html=1;rounded=0;entryX=0;entryY=0;entryDx=0;entryDy=0;exitX=0.592;exitY=0.969;exitDx=0;exitDy=0;exitPerimeter=0;" edge="1" parent="1" source="98YgMs9rK_HKfB4fXoP2-31" target="98YgMs9rK_HKfB4fXoP2-5">
          <mxGeometry relative="1" as="geometry">
            <mxPoint x="360" y="-20" as="sourcePoint" />
            <mxPoint x="520" y="-20" as="targetPoint" />
          </mxGeometry>
        </mxCell>
        <mxCell id="98YgMs9rK_HKfB4fXoP2-33" value="FName" style="ellipse;whiteSpace=wrap;html=1;align=center;" vertex="1" parent="1">
          <mxGeometry x="570" y="-310" width="150" height="60" as="geometry" />
        </mxCell>
        <mxCell id="98YgMs9rK_HKfB4fXoP2-34" value="LName" style="ellipse;whiteSpace=wrap;html=1;align=center;" vertex="1" parent="1">
          <mxGeometry x="350" y="-310" width="150" height="60" as="geometry" />
        </mxCell>
        <mxCell id="98YgMs9rK_HKfB4fXoP2-35" value="" style="endArrow=none;html=1;rounded=0;entryX=1;entryY=0;entryDx=0;entryDy=0;exitX=0.5;exitY=1;exitDx=0;exitDy=0;" edge="1" parent="1" source="98YgMs9rK_HKfB4fXoP2-33" target="98YgMs9rK_HKfB4fXoP2-31">
          <mxGeometry relative="1" as="geometry">
            <mxPoint x="579" y="-132" as="sourcePoint" />
            <mxPoint x="650" y="-40" as="targetPoint" />
            <Array as="points" />
          </mxGeometry>
        </mxCell>
        <mxCell id="98YgMs9rK_HKfB4fXoP2-36" value="" style="endArrow=none;html=1;rounded=0;entryX=0;entryY=0;entryDx=0;entryDy=0;exitX=0.559;exitY=0.979;exitDx=0;exitDy=0;exitPerimeter=0;" edge="1" parent="1" source="98YgMs9rK_HKfB4fXoP2-34" target="98YgMs9rK_HKfB4fXoP2-31">
          <mxGeometry relative="1" as="geometry">
            <mxPoint x="449" y="-250" as="sourcePoint" />
            <mxPoint x="520" y="-158" as="targetPoint" />
          </mxGeometry>
        </mxCell>
        <mxCell id="98YgMs9rK_HKfB4fXoP2-37" value="" style="endArrow=none;html=1;rounded=0;" edge="1" parent="1">
          <mxGeometry relative="1" as="geometry">
            <mxPoint x="920" y="-140" as="sourcePoint" />
            <mxPoint x="760" y="-50" as="targetPoint" />
          </mxGeometry>
        </mxCell>
        <mxCell id="98YgMs9rK_HKfB4fXoP2-38" value="BDate" style="ellipse;whiteSpace=wrap;html=1;align=center;" vertex="1" parent="1">
          <mxGeometry x="870" y="-200" width="130" height="60" as="geometry" />
        </mxCell>
        <mxCell id="98YgMs9rK_HKfB4fXoP2-39" value="" style="endArrow=none;html=1;rounded=0;" edge="1" parent="1">
          <mxGeometry relative="1" as="geometry">
            <mxPoint x="760" y="-30.909999999999997" as="sourcePoint" />
            <mxPoint x="920" y="-30.909999999999997" as="targetPoint" />
          </mxGeometry>
        </mxCell>
        <mxCell id="98YgMs9rK_HKfB4fXoP2-40" value="Fitness" style="ellipse;whiteSpace=wrap;html=1;align=center;" vertex="1" parent="1">
          <mxGeometry x="920" y="-70" width="160" height="80" as="geometry" />
        </mxCell>
        <mxCell id="98YgMs9rK_HKfB4fXoP2-41" value="" style="endArrow=none;html=1;rounded=0;" edge="1" parent="1">
          <mxGeometry relative="1" as="geometry">
            <mxPoint x="1080" y="-40" as="sourcePoint" />
            <mxPoint x="1180" y="-100" as="targetPoint" />
          </mxGeometry>
        </mxCell>
        <mxCell id="98YgMs9rK_HKfB4fXoP2-43" value="Height" style="ellipse;whiteSpace=wrap;html=1;align=center;" vertex="1" parent="1">
          <mxGeometry x="1170" y="-140" width="135" height="65" as="geometry" />
        </mxCell>
        <mxCell id="98YgMs9rK_HKfB4fXoP2-44" value="Weight" style="ellipse;whiteSpace=wrap;html=1;align=center;" vertex="1" parent="1">
          <mxGeometry x="1170" y="-20" width="130" height="60" as="geometry" />
        </mxCell>
        <mxCell id="98YgMs9rK_HKfB4fXoP2-45" value="" style="endArrow=none;html=1;rounded=0;entryX=0;entryY=0.5;entryDx=0;entryDy=0;exitX=1;exitY=1;exitDx=0;exitDy=0;" edge="1" parent="1" source="98YgMs9rK_HKfB4fXoP2-40" target="98YgMs9rK_HKfB4fXoP2-44">
          <mxGeometry relative="1" as="geometry">
            <mxPoint x="1090" y="-30" as="sourcePoint" />
            <mxPoint x="1190" y="-90" as="targetPoint" />
            <Array as="points" />
          </mxGeometry>
        </mxCell>
        <mxCell id="98YgMs9rK_HKfB4fXoP2-47" value="" style="endArrow=none;html=1;rounded=0;exitX=1;exitY=1;exitDx=0;exitDy=0;" edge="1" parent="1" source="98YgMs9rK_HKfB4fXoP2-5" target="98YgMs9rK_HKfB4fXoP2-48">
          <mxGeometry relative="1" as="geometry">
            <mxPoint x="770" as="sourcePoint" />
            <mxPoint x="940" y="110" as="targetPoint" />
          </mxGeometry>
        </mxCell>
        <mxCell id="98YgMs9rK_HKfB4fXoP2-48" value="Position" style="ellipse;whiteSpace=wrap;html=1;align=center;" vertex="1" parent="1">
          <mxGeometry x="890" y="60" width="170" height="70" as="geometry" />
        </mxCell>
        <mxCell id="98YgMs9rK_HKfB4fXoP2-49" value="" style="endArrow=none;html=1;rounded=0;exitX=0.75;exitY=1;exitDx=0;exitDy=0;" edge="1" parent="1" source="98YgMs9rK_HKfB4fXoP2-5" target="98YgMs9rK_HKfB4fXoP2-50">
          <mxGeometry relative="1" as="geometry">
            <mxPoint x="720" y="120" as="sourcePoint" />
            <mxPoint x="960" y="190" as="targetPoint" />
          </mxGeometry>
        </mxCell>
        <mxCell id="98YgMs9rK_HKfB4fXoP2-50" value="Country" style="ellipse;whiteSpace=wrap;html=1;align=center;" vertex="1" parent="1">
          <mxGeometry x="910" y="170" width="100" height="40" as="geometry" />
        </mxCell>
        <mxCell id="98YgMs9rK_HKfB4fXoP2-52" value="" style="endArrow=none;html=1;rounded=0;exitX=0;exitY=0.25;exitDx=0;exitDy=0;" edge="1" parent="1" source="98YgMs9rK_HKfB4fXoP2-1" target="98YgMs9rK_HKfB4fXoP2-53">
          <mxGeometry relative="1" as="geometry">
            <mxPoint x="-10" y="-40" as="sourcePoint" />
            <mxPoint x="150" y="-40" as="targetPoint" />
          </mxGeometry>
        </mxCell>
        <mxCell id="98YgMs9rK_HKfB4fXoP2-53" value="City" style="ellipse;whiteSpace=wrap;html=1;align=center;" vertex="1" parent="1">
          <mxGeometry x="-80" y="-200" width="150" height="70" as="geometry" />
        </mxCell>
        <mxCell id="98YgMs9rK_HKfB4fXoP2-54" value="" style="endArrow=none;html=1;rounded=0;exitX=1;exitY=0.5;exitDx=0;exitDy=0;" edge="1" parent="1" source="98YgMs9rK_HKfB4fXoP2-55">
          <mxGeometry relative="1" as="geometry">
            <mxPoint x="10" as="sourcePoint" />
            <mxPoint x="150" y="-22" as="targetPoint" />
          </mxGeometry>
        </mxCell>
        <mxCell id="98YgMs9rK_HKfB4fXoP2-55" value="CoachName" style="ellipse;whiteSpace=wrap;html=1;align=center;" vertex="1" parent="1">
          <mxGeometry x="-140" y="-110" width="130" height="60" as="geometry" />
        </mxCell>
        <mxCell id="98YgMs9rK_HKfB4fXoP2-56" value="" style="endArrow=none;html=1;rounded=0;entryX=0;entryY=1;entryDx=0;entryDy=0;exitX=1;exitY=0;exitDx=0;exitDy=0;" edge="1" parent="1" source="98YgMs9rK_HKfB4fXoP2-57" target="98YgMs9rK_HKfB4fXoP2-1">
          <mxGeometry relative="1" as="geometry">
            <mxPoint x="-170" y="90" as="sourcePoint" />
            <mxPoint x="380" y="30" as="targetPoint" />
            <Array as="points">
              <mxPoint x="-50" y="50" />
            </Array>
          </mxGeometry>
        </mxCell>
        <mxCell id="98YgMs9rK_HKfB4fXoP2-57" value="yearFounded" style="ellipse;whiteSpace=wrap;html=1;align=center;" vertex="1" parent="1">
          <mxGeometry x="-260" y="80" width="100" height="40" as="geometry" />
        </mxCell>
        <mxCell id="98YgMs9rK_HKfB4fXoP2-59" value="" style="endArrow=none;html=1;rounded=0;entryX=0;entryY=0.5;entryDx=0;entryDy=0;" edge="1" parent="1" target="98YgMs9rK_HKfB4fXoP2-9">
          <mxGeometry relative="1" as="geometry">
            <mxPoint x="-10" y="210" as="sourcePoint" />
            <mxPoint x="380" y="340" as="targetPoint" />
          </mxGeometry>
        </mxCell>
        <mxCell id="98YgMs9rK_HKfB4fXoP2-60" value="Score" style="ellipse;whiteSpace=wrap;html=1;align=center;" vertex="1" parent="1">
          <mxGeometry x="-100" y="190" width="100" height="40" as="geometry" />
        </mxCell>
        <mxCell id="98YgMs9rK_HKfB4fXoP2-62" value="" style="endArrow=none;html=1;rounded=0;" edge="1" parent="1">
          <mxGeometry relative="1" as="geometry">
            <mxPoint x="-10" y="419.6" as="sourcePoint" />
            <mxPoint x="150" y="419.6" as="targetPoint" />
          </mxGeometry>
        </mxCell>
        <mxCell id="98YgMs9rK_HKfB4fXoP2-63" value="Date" style="ellipse;whiteSpace=wrap;html=1;align=center;" vertex="1" parent="1">
          <mxGeometry x="-100" y="410" width="100" height="40" as="geometry" />
        </mxCell>
        <mxCell id="98YgMs9rK_HKfB4fXoP2-64" value="" style="endArrow=none;html=1;rounded=0;entryX=0;entryY=1;entryDx=0;entryDy=0;" edge="1" parent="1" target="98YgMs9rK_HKfB4fXoP2-2">
          <mxGeometry relative="1" as="geometry">
            <mxPoint x="40" y="490" as="sourcePoint" />
            <mxPoint x="170" y="490" as="targetPoint" />
          </mxGeometry>
        </mxCell>
        <mxCell id="98YgMs9rK_HKfB4fXoP2-65" value="Place" style="ellipse;whiteSpace=wrap;html=1;align=center;" vertex="1" parent="1">
          <mxGeometry x="-55" y="470" width="100" height="40" as="geometry" />
        </mxCell>
        <mxCell id="98YgMs9rK_HKfB4fXoP2-68" value="" style="endArrow=none;html=1;rounded=0;entryX=0;entryY=0;entryDx=0;entryDy=0;" edge="1" parent="1" target="98YgMs9rK_HKfB4fXoP2-9">
          <mxGeometry relative="1" as="geometry">
            <mxPoint x="-10" y="140" as="sourcePoint" />
            <mxPoint x="320" y="170" as="targetPoint" />
            <Array as="points" />
          </mxGeometry>
        </mxCell>
        <mxCell id="98YgMs9rK_HKfB4fXoP2-69" value="IsHomeTeam" style="ellipse;whiteSpace=wrap;html=1;align=center;" vertex="1" parent="1">
          <mxGeometry x="-110" y="120" width="100" height="40" as="geometry" />
        </mxCell>
        <mxCell id="98YgMs9rK_HKfB4fXoP2-72" value="" style="endArrow=none;html=1;rounded=0;" edge="1" parent="1">
          <mxGeometry relative="1" as="geometry">
            <mxPoint x="270" y="890" as="sourcePoint" />
            <mxPoint x="430" y="890" as="targetPoint" />
          </mxGeometry>
        </mxCell>
        <mxCell id="98YgMs9rK_HKfB4fXoP2-73" value="year" style="ellipse;whiteSpace=wrap;html=1;align=center;" vertex="1" parent="1">
          <mxGeometry x="425" y="870" width="100" height="40" as="geometry" />
        </mxCell>
        <mxCell id="98YgMs9rK_HKfB4fXoP2-78" value="" style="shape=link;html=1;rounded=0;entryX=0.5;entryY=1;entryDx=0;entryDy=0;exitX=0.5;exitY=1;exitDx=0;exitDy=0;" edge="1" parent="1" source="98YgMs9rK_HKfB4fXoP2-8" target="98YgMs9rK_HKfB4fXoP2-8">
          <mxGeometry relative="1" as="geometry">
            <mxPoint x="350" y="720" as="sourcePoint" />
            <mxPoint x="510" y="720" as="targetPoint" />
            <Array as="points">
              <mxPoint x="220" y="850" />
            </Array>
          </mxGeometry>
        </mxCell>
        <mxCell id="98YgMs9rK_HKfB4fXoP2-80" value="" style="shape=link;html=1;rounded=0;exitX=0.5;exitY=0;exitDx=0;exitDy=0;" edge="1" parent="1" source="98YgMs9rK_HKfB4fXoP2-3">
          <mxGeometry relative="1" as="geometry">
            <mxPoint x="350" y="720" as="sourcePoint" />
            <mxPoint x="210" y="700" as="targetPoint" />
          </mxGeometry>
        </mxCell>
        <mxCell id="98YgMs9rK_HKfB4fXoP2-81" value="1" style="resizable=0;html=1;whiteSpace=wrap;align=right;verticalAlign=bottom;" connectable="0" vertex="1" parent="98YgMs9rK_HKfB4fXoP2-80">
          <mxGeometry x="1" relative="1" as="geometry">
            <mxPoint x="20" y="10" as="offset" />
          </mxGeometry>
        </mxCell>
        <mxCell id="98YgMs9rK_HKfB4fXoP2-82" value="" style="shape=link;html=1;rounded=0;exitX=0.5;exitY=1;exitDx=0;exitDy=0;entryX=0.5;entryY=0;entryDx=0;entryDy=0;" edge="1" parent="1" source="98YgMs9rK_HKfB4fXoP2-2" target="98YgMs9rK_HKfB4fXoP2-8">
          <mxGeometry relative="1" as="geometry">
            <mxPoint x="220" y="560" as="sourcePoint" />
            <mxPoint x="380" y="560" as="targetPoint" />
          </mxGeometry>
        </mxCell>
        <mxCell id="98YgMs9rK_HKfB4fXoP2-83" value="N" style="resizable=0;html=1;whiteSpace=wrap;align=right;verticalAlign=bottom;" connectable="0" vertex="1" parent="98YgMs9rK_HKfB4fXoP2-82">
          <mxGeometry x="1" relative="1" as="geometry">
            <mxPoint x="20" as="offset" />
          </mxGeometry>
        </mxCell>
        <mxCell id="98YgMs9rK_HKfB4fXoP2-84" value="" style="endArrow=none;html=1;rounded=0;" edge="1" parent="1" source="98YgMs9rK_HKfB4fXoP2-4">
          <mxGeometry relative="1" as="geometry">
            <mxPoint x="1040" y="529.38" as="sourcePoint" />
            <mxPoint x="1200" y="529.38" as="targetPoint" />
          </mxGeometry>
        </mxCell>
        <mxCell id="98YgMs9rK_HKfB4fXoP2-85" value="Hit" style="ellipse;whiteSpace=wrap;html=1;align=center;" vertex="1" parent="1">
          <mxGeometry x="1190" y="510" width="100" height="40" as="geometry" />
        </mxCell>
        <mxCell id="98YgMs9rK_HKfB4fXoP2-86" value="" style="endArrow=none;html=1;rounded=0;exitX=0.961;exitY=1.04;exitDx=0;exitDy=0;exitPerimeter=0;" edge="1" parent="1" source="98YgMs9rK_HKfB4fXoP2-4" target="98YgMs9rK_HKfB4fXoP2-87">
          <mxGeometry relative="1" as="geometry">
            <mxPoint x="1042.71018596994" y="701.0703584118369" as="sourcePoint" />
            <mxPoint x="1180" y="600" as="targetPoint" />
          </mxGeometry>
        </mxCell>
        <mxCell id="98YgMs9rK_HKfB4fXoP2-87" value="Steal" style="ellipse;whiteSpace=wrap;html=1;align=center;" vertex="1" parent="1">
          <mxGeometry x="1130" y="580" width="100" height="40" as="geometry" />
        </mxCell>
        <mxCell id="98YgMs9rK_HKfB4fXoP2-88" value="" style="endArrow=none;html=1;rounded=0;exitX=0.994;exitY=0.353;exitDx=0;exitDy=0;exitPerimeter=0;" edge="1" parent="1" source="98YgMs9rK_HKfB4fXoP2-4" target="98YgMs9rK_HKfB4fXoP2-89">
          <mxGeometry relative="1" as="geometry">
            <mxPoint x="1050" y="420" as="sourcePoint" />
            <mxPoint x="1210" y="420" as="targetPoint" />
          </mxGeometry>
        </mxCell>
        <mxCell id="98YgMs9rK_HKfB4fXoP2-89" value="Assist" style="ellipse;whiteSpace=wrap;html=1;align=center;" vertex="1" parent="1">
          <mxGeometry x="1160" y="400" width="100" height="40" as="geometry" />
        </mxCell>
        <mxCell id="98YgMs9rK_HKfB4fXoP2-91" value="" style="endArrow=none;html=1;rounded=0;" edge="1" parent="1" source="98YgMs9rK_HKfB4fXoP2-4" target="98YgMs9rK_HKfB4fXoP2-92">
          <mxGeometry relative="1" as="geometry">
            <mxPoint x="740" y="580" as="sourcePoint" />
            <mxPoint x="860" y="630" as="targetPoint" />
          </mxGeometry>
        </mxCell>
        <mxCell id="98YgMs9rK_HKfB4fXoP2-92" value="Score" style="ellipse;whiteSpace=wrap;html=1;align=center;" vertex="1" parent="1">
          <mxGeometry x="810.0000000000005" y="610" width="100" height="40" as="geometry" />
        </mxCell>
        <mxCell id="98YgMs9rK_HKfB4fXoP2-93" value="" style="endArrow=none;html=1;rounded=0;exitX=0.909;exitY=1.02;exitDx=0;exitDy=0;exitPerimeter=0;" edge="1" parent="1" source="98YgMs9rK_HKfB4fXoP2-4" target="98YgMs9rK_HKfB4fXoP2-94">
          <mxGeometry relative="1" as="geometry">
            <mxPoint x="780" y="480" as="sourcePoint" />
            <mxPoint x="990" y="630" as="targetPoint" />
          </mxGeometry>
        </mxCell>
        <mxCell id="98YgMs9rK_HKfB4fXoP2-94" value="Rebound" style="ellipse;whiteSpace=wrap;html=1;align=center;" vertex="1" parent="1">
          <mxGeometry x="940" y="610" width="110" height="50" as="geometry" />
        </mxCell>
        <mxCell id="98YgMs9rK_HKfB4fXoP2-95" value="" style="shape=link;html=1;rounded=0;exitX=0.5;exitY=0;exitDx=0;exitDy=0;entryX=0.5;entryY=1;entryDx=0;entryDy=0;" edge="1" parent="1" source="98YgMs9rK_HKfB4fXoP2-2" target="98YgMs9rK_HKfB4fXoP2-9">
          <mxGeometry relative="1" as="geometry">
            <mxPoint x="300" y="190" as="sourcePoint" />
            <mxPoint x="460" y="190" as="targetPoint" />
          </mxGeometry>
        </mxCell>
        <mxCell id="98YgMs9rK_HKfB4fXoP2-96" value="1" style="resizable=0;html=1;whiteSpace=wrap;align=right;verticalAlign=bottom;" connectable="0" vertex="1" parent="98YgMs9rK_HKfB4fXoP2-95">
          <mxGeometry x="1" relative="1" as="geometry">
            <mxPoint x="20" y="20" as="offset" />
          </mxGeometry>
        </mxCell>
        <mxCell id="98YgMs9rK_HKfB4fXoP2-99" value="" style="endArrow=none;html=1;rounded=0;exitX=0.582;exitY=1.051;exitDx=0;exitDy=0;exitPerimeter=0;" edge="1" parent="1" source="98YgMs9rK_HKfB4fXoP2-1" target="98YgMs9rK_HKfB4fXoP2-9">
          <mxGeometry relative="1" as="geometry">
            <mxPoint x="350" y="140" as="sourcePoint" />
            <mxPoint x="510" y="140" as="targetPoint" />
          </mxGeometry>
        </mxCell>
        <mxCell id="98YgMs9rK_HKfB4fXoP2-100" value="2" style="resizable=0;html=1;whiteSpace=wrap;align=right;verticalAlign=bottom;" connectable="0" vertex="1" parent="98YgMs9rK_HKfB4fXoP2-99">
          <mxGeometry x="1" relative="1" as="geometry">
            <mxPoint x="20" as="offset" />
          </mxGeometry>
        </mxCell>
        <mxCell id="98YgMs9rK_HKfB4fXoP2-101" value="" style="shape=link;html=1;rounded=0;entryX=0;entryY=0.5;entryDx=0;entryDy=0;" edge="1" parent="1" source="98YgMs9rK_HKfB4fXoP2-1" target="98YgMs9rK_HKfB4fXoP2-6">
          <mxGeometry relative="1" as="geometry">
            <mxPoint x="270" y="-25.669999999999987" as="sourcePoint" />
            <mxPoint x="400" y="-30" as="targetPoint" />
          </mxGeometry>
        </mxCell>
        <mxCell id="98YgMs9rK_HKfB4fXoP2-102" value="1" style="resizable=0;html=1;whiteSpace=wrap;align=right;verticalAlign=bottom;" connectable="0" vertex="1" parent="98YgMs9rK_HKfB4fXoP2-101">
          <mxGeometry x="1" relative="1" as="geometry" />
        </mxCell>
        <mxCell id="98YgMs9rK_HKfB4fXoP2-103" value="" style="shape=link;html=1;rounded=0;exitX=1;exitY=0.5;exitDx=0;exitDy=0;entryX=0;entryY=0.5;entryDx=0;entryDy=0;" edge="1" parent="1" source="98YgMs9rK_HKfB4fXoP2-6" target="98YgMs9rK_HKfB4fXoP2-5">
          <mxGeometry relative="1" as="geometry">
            <mxPoint x="520" y="-30.669999999999987" as="sourcePoint" />
            <mxPoint x="650" y="-30" as="targetPoint" />
          </mxGeometry>
        </mxCell>
        <mxCell id="98YgMs9rK_HKfB4fXoP2-104" value="N" style="resizable=0;html=1;whiteSpace=wrap;align=right;verticalAlign=bottom;" connectable="0" vertex="1" parent="98YgMs9rK_HKfB4fXoP2-103">
          <mxGeometry x="1" relative="1" as="geometry">
            <mxPoint x="-115" y="-15" as="offset" />
          </mxGeometry>
        </mxCell>
        <mxCell id="98YgMs9rK_HKfB4fXoP2-107" value="" style="endArrow=none;html=1;rounded=0;exitX=0.5;exitY=1;exitDx=0;exitDy=0;entryX=0.5;entryY=0;entryDx=0;entryDy=0;" edge="1" parent="1" source="98YgMs9rK_HKfB4fXoP2-5" target="98YgMs9rK_HKfB4fXoP2-10">
          <mxGeometry relative="1" as="geometry">
            <mxPoint x="580" y="70" as="sourcePoint" />
            <mxPoint x="740" y="70" as="targetPoint" />
          </mxGeometry>
        </mxCell>
        <mxCell id="98YgMs9rK_HKfB4fXoP2-108" value="1" style="resizable=0;html=1;whiteSpace=wrap;align=right;verticalAlign=bottom;" connectable="0" vertex="1" parent="1">
          <mxGeometry x="430" y="-2.2737367544323206e-13" as="geometry">
            <mxPoint x="286" y="137" as="offset" />
          </mxGeometry>
        </mxCell>
        <mxCell id="98YgMs9rK_HKfB4fXoP2-109" value="" style="shape=link;html=1;rounded=0;exitX=0.5;exitY=0;exitDx=0;exitDy=0;entryX=0.5;entryY=1;entryDx=0;entryDy=0;" edge="1" parent="1" source="98YgMs9rK_HKfB4fXoP2-4" target="98YgMs9rK_HKfB4fXoP2-10">
          <mxGeometry relative="1" as="geometry">
            <mxPoint x="580" y="340" as="sourcePoint" />
            <mxPoint x="740" y="340" as="targetPoint" />
          </mxGeometry>
        </mxCell>
        <mxCell id="98YgMs9rK_HKfB4fXoP2-110" value="N" style="resizable=0;html=1;whiteSpace=wrap;align=right;verticalAlign=bottom;" connectable="0" vertex="1" parent="98YgMs9rK_HKfB4fXoP2-109">
          <mxGeometry x="1" relative="1" as="geometry">
            <mxPoint x="20" y="10" as="offset" />
          </mxGeometry>
        </mxCell>
        <mxCell id="98YgMs9rK_HKfB4fXoP2-111" value="" style="shape=link;html=1;rounded=0;exitX=1;exitY=0.5;exitDx=0;exitDy=0;entryX=0;entryY=0.5;entryDx=0;entryDy=0;" edge="1" parent="1" source="98YgMs9rK_HKfB4fXoP2-7" target="98YgMs9rK_HKfB4fXoP2-4">
          <mxGeometry relative="1" as="geometry">
            <mxPoint x="350" y="320" as="sourcePoint" />
            <mxPoint x="510" y="320" as="targetPoint" />
          </mxGeometry>
        </mxCell>
        <mxCell id="98YgMs9rK_HKfB4fXoP2-112" value="N" style="resizable=0;html=1;whiteSpace=wrap;align=right;verticalAlign=bottom;" connectable="0" vertex="1" parent="98YgMs9rK_HKfB4fXoP2-111">
          <mxGeometry x="1" relative="1" as="geometry">
            <mxPoint x="-100" y="-10" as="offset" />
          </mxGeometry>
        </mxCell>
        <mxCell id="98YgMs9rK_HKfB4fXoP2-113" value="" style="shape=link;html=1;rounded=0;exitX=1;exitY=0.5;exitDx=0;exitDy=0;entryX=0;entryY=0.5;entryDx=0;entryDy=0;" edge="1" parent="1" source="98YgMs9rK_HKfB4fXoP2-2" target="98YgMs9rK_HKfB4fXoP2-7">
          <mxGeometry relative="1" as="geometry">
            <mxPoint x="280" y="429.52" as="sourcePoint" />
            <mxPoint x="440" y="429.52" as="targetPoint" />
          </mxGeometry>
        </mxCell>
        <mxCell id="98YgMs9rK_HKfB4fXoP2-114" value="1" style="resizable=0;html=1;whiteSpace=wrap;align=right;verticalAlign=bottom;" connectable="0" vertex="1" parent="98YgMs9rK_HKfB4fXoP2-113">
          <mxGeometry x="1" relative="1" as="geometry">
            <mxPoint y="-10" as="offset" />
          </mxGeometry>
        </mxCell>
        <mxCell id="98YgMs9rK_HKfB4fXoP2-116" value="" style="endArrow=none;html=1;rounded=0;entryX=0.75;entryY=0;entryDx=0;entryDy=0;exitX=0.5;exitY=1;exitDx=0;exitDy=0;" edge="1" parent="1" source="98YgMs9rK_HKfB4fXoP2-117" target="98YgMs9rK_HKfB4fXoP2-5">
          <mxGeometry relative="1" as="geometry">
            <mxPoint x="860" y="-280" as="sourcePoint" />
            <mxPoint x="440" y="-90" as="targetPoint" />
          </mxGeometry>
        </mxCell>
        <mxCell id="98YgMs9rK_HKfB4fXoP2-117" value="Salary" style="ellipse;whiteSpace=wrap;html=1;align=center;" vertex="1" parent="1">
          <mxGeometry x="800" y="-330" width="100" height="40" as="geometry" />
        </mxCell>
      </root>
    </mxGraphModel>
  </diagram>
</mxfile>
